<mxfile host="app.diagrams.net" modified="2024-01-10T12:40:54.580Z" agent="Mozilla/5.0 (Windows NT 10.0; Win64; x64) AppleWebKit/537.36 (KHTML, like Gecko) Chrome/120.0.0.0 Safari/537.36" etag="0GnaSIEl85DSv6D01s4h" version="22.1.18" type="device">
  <diagram name="Page-1" id="UUXNITAG6yJqJdSE80ox">
    <mxGraphModel dx="3754" dy="-109" grid="1" gridSize="10" guides="1" tooltips="1" connect="1" arrows="1" fold="1" page="1" pageScale="1" pageWidth="827" pageHeight="1169" math="0" shadow="0">
      <root>
        <mxCell id="0" />
        <mxCell id="1" parent="0" />
        <mxCell id="qMjN_QjHDl9g3h9OxH7N-2" value="&lt;font style=&quot;font-size: 30px;&quot;&gt;Admin&lt;/font&gt;" style="shape=umlActor;verticalLabelPosition=bottom;verticalAlign=top;html=1;outlineConnect=0;" parent="1" vertex="1">
          <mxGeometry x="-544" y="2620" width="250" height="240" as="geometry" />
        </mxCell>
        <mxCell id="qMjN_QjHDl9g3h9OxH7N-3" value="&lt;font style=&quot;font-size: 30px;&quot;&gt;Food Truvk&lt;/font&gt;" style="shape=umlActor;verticalLabelPosition=bottom;verticalAlign=top;html=1;outlineConnect=0;" parent="1" vertex="1">
          <mxGeometry x="617" y="1790" width="210" height="290" as="geometry" />
        </mxCell>
        <mxCell id="qMjN_QjHDl9g3h9OxH7N-4" value="&lt;font style=&quot;font-size: 30px;&quot;&gt;Customer&lt;/font&gt;" style="shape=umlActor;verticalLabelPosition=bottom;verticalAlign=top;html=1;outlineConnect=0;" parent="1" vertex="1">
          <mxGeometry x="-1620" y="1687" width="230" height="320" as="geometry" />
        </mxCell>
        <mxCell id="qMjN_QjHDl9g3h9OxH7N-23" value="Food Truck" style="shape=rect;html=1;verticalAlign=top;fontStyle=1;whiteSpace=wrap;align=center;fillColor=#f9f7ed;strokeColor=#36393d;" parent="1" vertex="1">
          <mxGeometry x="-1294" y="1260" width="1860" height="1290" as="geometry" />
        </mxCell>
        <mxCell id="qMjN_QjHDl9g3h9OxH7N-80" value="Food Truck and admin" style="shape=rect;html=1;verticalAlign=top;fontStyle=1;whiteSpace=wrap;align=center;fillColor=#f5f5f5;strokeColor=#666666;fontColor=#333333;" parent="1" vertex="1">
          <mxGeometry x="76" y="2260" width="470" height="270" as="geometry" />
        </mxCell>
        <mxCell id="qMjN_QjHDl9g3h9OxH7N-81" value="User&amp;lt;Food Truck&amp;gt;" style="shape=rect;html=1;verticalAlign=top;fontStyle=1;whiteSpace=wrap;align=center;fillColor=#f5f5f5;strokeColor=#666666;fontColor=#333333;" parent="1" vertex="1">
          <mxGeometry x="-430" y="1280" width="976" height="940" as="geometry" />
        </mxCell>
        <mxCell id="qMjN_QjHDl9g3h9OxH7N-84" value="delete-Category" style="ellipse;whiteSpace=wrap;html=1;fillColor=#f5f5f5;gradientColor=#b3b3b3;strokeColor=#666666;" parent="1" vertex="1">
          <mxGeometry x="376" y="2430" width="140" height="70" as="geometry" />
        </mxCell>
        <mxCell id="qMjN_QjHDl9g3h9OxH7N-85" value="Custmer And Admin" style="shape=rect;html=1;verticalAlign=top;fontStyle=1;whiteSpace=wrap;align=center;fillColor=#f5f5f5;fontColor=#333333;strokeColor=#666666;" parent="1" vertex="1">
          <mxGeometry x="-1270" y="2250" width="470" height="285" as="geometry" />
        </mxCell>
        <mxCell id="qMjN_QjHDl9g3h9OxH7N-86" value="deleteAddress" style="ellipse;whiteSpace=wrap;html=1;fillColor=#f5f5f5;strokeColor=#666666;gradientColor=#b3b3b3;" parent="1" vertex="1">
          <mxGeometry x="-990" y="2290" width="140" height="70" as="geometry" />
        </mxCell>
        <mxCell id="qMjN_QjHDl9g3h9OxH7N-87" value="deleteProfile" style="ellipse;whiteSpace=wrap;html=1;fillColor=#f5f5f5;gradientColor=#b3b3b3;strokeColor=#666666;" parent="1" vertex="1">
          <mxGeometry x="-1231" y="2300" width="140" height="70" as="geometry" />
        </mxCell>
        <mxCell id="qMjN_QjHDl9g3h9OxH7N-82" value="Customer" style="shape=rect;html=1;verticalAlign=top;fontStyle=1;whiteSpace=wrap;align=center;fillColor=#f5f5f5;strokeColor=#666666;fontColor=#333333;" parent="1" vertex="1">
          <mxGeometry x="-1264" y="1280" width="680" height="700" as="geometry" />
        </mxCell>
        <mxCell id="qMjN_QjHDl9g3h9OxH7N-88" value="find All By Feedback status" style="ellipse;whiteSpace=wrap;html=1;fillColor=#f5f5f5;gradientColor=#b3b3b3;strokeColor=#666666;" parent="1" vertex="1">
          <mxGeometry x="126" y="2400" width="140" height="70" as="geometry" />
        </mxCell>
        <mxCell id="qMjN_QjHDl9g3h9OxH7N-89" value="delete-service" style="ellipse;whiteSpace=wrap;html=1;fillColor=#fff2cc;gradientColor=#c8c8c8;strokeColor=#C4A74F;" parent="1" vertex="1">
          <mxGeometry x="290" y="2370" width="140" height="70" as="geometry" />
        </mxCell>
        <mxCell id="qMjN_QjHDl9g3h9OxH7N-101" value="Get Order By Id" style="ellipse;whiteSpace=wrap;html=1;fillColor=#f5f5f5;gradientColor=#b3b3b3;strokeColor=#666666;" parent="1" vertex="1">
          <mxGeometry x="-1064" y="1470" width="140" height="70" as="geometry" />
        </mxCell>
        <mxCell id="qMjN_QjHDl9g3h9OxH7N-102" value="delete_order" style="ellipse;whiteSpace=wrap;html=1;fillColor=#f5f5f5;gradientColor=#b3b3b3;strokeColor=#666666;" parent="1" vertex="1">
          <mxGeometry x="-1077" y="1330" width="140" height="70" as="geometry" />
        </mxCell>
        <mxCell id="qMjN_QjHDl9g3h9OxH7N-103" value="Update Order" style="ellipse;whiteSpace=wrap;html=1;fillColor=#f5f5f5;gradientColor=#b3b3b3;strokeColor=#666666;" parent="1" vertex="1">
          <mxGeometry x="-1254" y="1410" width="140" height="70" as="geometry" />
        </mxCell>
        <mxCell id="qMjN_QjHDl9g3h9OxH7N-104" value="AddOrder" style="ellipse;whiteSpace=wrap;html=1;fillColor=#f5f5f5;gradientColor=#b3b3b3;strokeColor=#666666;" parent="1" vertex="1">
          <mxGeometry x="-1244" y="1330" width="140" height="70" as="geometry" />
        </mxCell>
        <mxCell id="qMjN_QjHDl9g3h9OxH7N-105" value="Add Address" style="ellipse;whiteSpace=wrap;html=1;fillColor=#f5f5f5;gradientColor=#b3b3b3;strokeColor=#666666;" parent="1" vertex="1">
          <mxGeometry x="-870" y="1595" width="140" height="70" as="geometry" />
        </mxCell>
        <mxCell id="qMjN_QjHDl9g3h9OxH7N-106" value="Update Profile" style="ellipse;whiteSpace=wrap;html=1;fillColor=#f5f5f5;gradientColor=#b3b3b3;strokeColor=#666666;" parent="1" vertex="1">
          <mxGeometry x="-860" y="1900" width="140" height="70" as="geometry" />
        </mxCell>
        <mxCell id="qMjN_QjHDl9g3h9OxH7N-107" value="Get Category" style="ellipse;whiteSpace=wrap;html=1;fillColor=#f5f5f5;gradientColor=#b3b3b3;strokeColor=#666666;" parent="1" vertex="1">
          <mxGeometry x="-850" y="1410" width="140" height="70" as="geometry" />
        </mxCell>
        <mxCell id="qMjN_QjHDl9g3h9OxH7N-108" value="addProfile" style="ellipse;whiteSpace=wrap;html=1;fillColor=#f5f5f5;gradientColor=#b3b3b3;strokeColor=#666666;" parent="1" vertex="1">
          <mxGeometry x="-924" y="1330" width="140" height="70" as="geometry" />
        </mxCell>
        <mxCell id="qMjN_QjHDl9g3h9OxH7N-109" value="Service Get By Food Truck &amp;lt;Name&amp;gt;" style="ellipse;whiteSpace=wrap;html=1;fillColor=#f5f5f5;gradientColor=#b3b3b3;strokeColor=#666666;" parent="1" vertex="1">
          <mxGeometry x="-967" y="1820" width="140" height="70" as="geometry" />
        </mxCell>
        <mxCell id="qMjN_QjHDl9g3h9OxH7N-110" value="Get service" style="ellipse;whiteSpace=wrap;html=1;fillColor=#f5f5f5;gradientColor=#b3b3b3;strokeColor=#666666;" parent="1" vertex="1">
          <mxGeometry x="-924" y="1510" width="140" height="70" as="geometry" />
        </mxCell>
        <mxCell id="qMjN_QjHDl9g3h9OxH7N-111" value="Get Ticket By Id" style="ellipse;whiteSpace=wrap;html=1;fillColor=#f5f5f5;gradientColor=#b3b3b3;strokeColor=#666666;" parent="1" vertex="1">
          <mxGeometry x="-759" y="1529" width="140" height="70" as="geometry" />
        </mxCell>
        <mxCell id="qMjN_QjHDl9g3h9OxH7N-112" value="Update Address" style="ellipse;whiteSpace=wrap;html=1;fillColor=#f5f5f5;gradientColor=#b3b3b3;strokeColor=#666666;" parent="1" vertex="1">
          <mxGeometry x="-1060" y="1560" width="140" height="70" as="geometry" />
        </mxCell>
        <mxCell id="qMjN_QjHDl9g3h9OxH7N-113" value="Get By Food Truck id" style="ellipse;whiteSpace=wrap;html=1;fillColor=#f5f5f5;gradientColor=#b3b3b3;strokeColor=#666666;" parent="1" vertex="1">
          <mxGeometry x="-67" y="1450" width="140" height="70" as="geometry" />
        </mxCell>
        <mxCell id="qMjN_QjHDl9g3h9OxH7N-114" value="Reject Ticket" style="ellipse;whiteSpace=wrap;html=1;fillColor=#f5f5f5;gradientColor=#b3b3b3;strokeColor=#666666;" parent="1" vertex="1">
          <mxGeometry x="-67" y="1350" width="140" height="70" as="geometry" />
        </mxCell>
        <mxCell id="qMjN_QjHDl9g3h9OxH7N-115" value="Accept Ticket" style="ellipse;whiteSpace=wrap;html=1;fillColor=#f5f5f5;gradientColor=#b3b3b3;strokeColor=#666666;" parent="1" vertex="1">
          <mxGeometry x="-380" y="1459" width="140" height="70" as="geometry" />
        </mxCell>
        <mxCell id="qMjN_QjHDl9g3h9OxH7N-116" value="End Order" style="ellipse;whiteSpace=wrap;html=1;fillColor=#f5f5f5;gradientColor=#b3b3b3;strokeColor=#666666;" parent="1" vertex="1">
          <mxGeometry x="40" y="1540" width="140" height="70" as="geometry" />
        </mxCell>
        <mxCell id="qMjN_QjHDl9g3h9OxH7N-121" value="Get profile List" style="ellipse;whiteSpace=wrap;html=1;fillColor=#f5f5f5;gradientColor=#b3b3b3;strokeColor=#666666;" parent="1" vertex="1">
          <mxGeometry x="376" y="1430" width="140" height="70" as="geometry" />
        </mxCell>
        <mxCell id="qMjN_QjHDl9g3h9OxH7N-122" value="Get Order ByDate Start&lt;br&gt;and End" style="ellipse;whiteSpace=wrap;html=1;fillColor=#f5f5f5;gradientColor=#b3b3b3;strokeColor=#666666;" parent="1" vertex="1">
          <mxGeometry x="376" y="1350" width="140" height="70" as="geometry" />
        </mxCell>
        <mxCell id="qMjN_QjHDl9g3h9OxH7N-123" value="get Order By Equal Date" style="ellipse;whiteSpace=wrap;html=1;fillColor=#f5f5f5;gradientColor=#b3b3b3;strokeColor=#666666;" parent="1" vertex="1">
          <mxGeometry x="209" y="1450" width="140" height="70" as="geometry" />
        </mxCell>
        <mxCell id="qMjN_QjHDl9g3h9OxH7N-124" value="Get order By Total Price" style="ellipse;whiteSpace=wrap;html=1;fillColor=#f5f5f5;gradientColor=#b3b3b3;strokeColor=#666666;" parent="1" vertex="1">
          <mxGeometry x="209" y="1350" width="140" height="70" as="geometry" />
        </mxCell>
        <mxCell id="qMjN_QjHDl9g3h9OxH7N-141" value="Get address By city" style="ellipse;whiteSpace=wrap;html=1;fillColor=#f5f5f5;gradientColor=#b3b3b3;strokeColor=#666666;" parent="1" vertex="1">
          <mxGeometry x="-40" y="1980" width="140" height="70" as="geometry" />
        </mxCell>
        <mxCell id="qMjN_QjHDl9g3h9OxH7N-142" value="Added category" style="ellipse;whiteSpace=wrap;html=1;fillColor=#f5f5f5;gradientColor=#b3b3b3;strokeColor=#666666;" parent="1" vertex="1">
          <mxGeometry x="-50" y="1790" width="140" height="70" as="geometry" />
        </mxCell>
        <mxCell id="qMjN_QjHDl9g3h9OxH7N-143" value="Get Address&amp;nbsp;" style="ellipse;whiteSpace=wrap;html=1;fillColor=#f5f5f5;gradientColor=#b3b3b3;strokeColor=#666666;" parent="1" vertex="1">
          <mxGeometry x="-234" y="1700" width="140" height="70" as="geometry" />
        </mxCell>
        <mxCell id="qMjN_QjHDl9g3h9OxH7N-144" value="Get Profile by Id" style="ellipse;whiteSpace=wrap;html=1;fillColor=#f5f5f5;gradientColor=#b3b3b3;strokeColor=#666666;" parent="1" vertex="1">
          <mxGeometry x="-300" y="1617" width="140" height="70" as="geometry" />
        </mxCell>
        <mxCell id="qMjN_QjHDl9g3h9OxH7N-145" value="Update Service" style="ellipse;whiteSpace=wrap;html=1;fillColor=#f5f5f5;gradientColor=#b3b3b3;strokeColor=#666666;" parent="1" vertex="1">
          <mxGeometry x="390" y="1970" width="140" height="70" as="geometry" />
        </mxCell>
        <mxCell id="qMjN_QjHDl9g3h9OxH7N-146" value="deleteProfile" style="ellipse;whiteSpace=wrap;html=1;fillColor=#f5f5f5;gradientColor=#b3b3b3;strokeColor=#666666;" parent="1" vertex="1">
          <mxGeometry x="110" y="1890" width="140" height="70" as="geometry" />
        </mxCell>
        <mxCell id="qMjN_QjHDl9g3h9OxH7N-147" value="Added service" style="ellipse;whiteSpace=wrap;html=1;fillColor=#f5f5f5;gradientColor=#b3b3b3;strokeColor=#666666;" parent="1" vertex="1">
          <mxGeometry x="236" y="2140" width="140" height="70" as="geometry" />
        </mxCell>
        <mxCell id="qMjN_QjHDl9g3h9OxH7N-148" value="Update Category" style="ellipse;whiteSpace=wrap;html=1;fillColor=#f5f5f5;gradientColor=#b3b3b3;strokeColor=#666666;" parent="1" vertex="1">
          <mxGeometry x="180" y="1670" width="140" height="70" as="geometry" />
        </mxCell>
        <mxCell id="qMjN_QjHDl9g3h9OxH7N-154" value="Update Ticket" style="ellipse;whiteSpace=wrap;html=1;fillColor=#f5f5f5;gradientColor=#b3b3b3;strokeColor=#666666;" parent="1" vertex="1">
          <mxGeometry x="-130" y="2060" width="140" height="70" as="geometry" />
        </mxCell>
        <mxCell id="qMjN_QjHDl9g3h9OxH7N-156" value="Added Ticket" style="ellipse;whiteSpace=wrap;html=1;fillColor=#f5f5f5;gradientColor=#b3b3b3;strokeColor=#666666;" parent="1" vertex="1">
          <mxGeometry x="-234" y="1830" width="140" height="70" as="geometry" />
        </mxCell>
        <mxCell id="qMjN_QjHDl9g3h9OxH7N-158" value="Get Address By Customer Id" style="ellipse;whiteSpace=wrap;html=1;fillColor=#f5f5f5;gradientColor=#b3b3b3;strokeColor=#666666;" parent="1" vertex="1">
          <mxGeometry x="406" y="2110" width="140" height="70" as="geometry" />
        </mxCell>
        <mxCell id="qMjN_QjHDl9g3h9OxH7N-160" value="delete Ticket" style="ellipse;whiteSpace=wrap;html=1;fillColor=#f5f5f5;gradientColor=#b3b3b3;strokeColor=#666666;" parent="1" vertex="1">
          <mxGeometry x="236" y="1990" width="140" height="70" as="geometry" />
        </mxCell>
        <mxCell id="qMjN_QjHDl9g3h9OxH7N-161" value="" style="edgeStyle=none;html=1;endArrow=block;endFill=0;endSize=12;verticalAlign=bottom;rounded=0;exitX=1;exitY=0.3333333333333333;exitDx=0;exitDy=0;exitPerimeter=0;entryX=0;entryY=1;entryDx=0;entryDy=0;" parent="1" source="qMjN_QjHDl9g3h9OxH7N-4" target="qMjN_QjHDl9g3h9OxH7N-171" edge="1">
          <mxGeometry width="160" relative="1" as="geometry">
            <mxPoint x="-120" y="2080" as="sourcePoint" />
            <mxPoint x="40" y="2080" as="targetPoint" />
          </mxGeometry>
        </mxCell>
        <mxCell id="qMjN_QjHDl9g3h9OxH7N-162" value="" style="edgeStyle=none;html=1;endArrow=block;endFill=0;endSize=12;verticalAlign=bottom;rounded=0;exitX=1;exitY=1;exitDx=0;exitDy=0;exitPerimeter=0;" parent="1" source="qMjN_QjHDl9g3h9OxH7N-4" target="qMjN_QjHDl9g3h9OxH7N-86" edge="1">
          <mxGeometry width="160" relative="1" as="geometry">
            <mxPoint x="-120" y="2080" as="sourcePoint" />
            <mxPoint x="40" y="2080" as="targetPoint" />
          </mxGeometry>
        </mxCell>
        <mxCell id="qMjN_QjHDl9g3h9OxH7N-163" value="" style="edgeStyle=none;html=1;endArrow=block;endFill=0;endSize=12;verticalAlign=bottom;rounded=0;entryX=0.5;entryY=1;entryDx=0;entryDy=0;" parent="1" target="qMjN_QjHDl9g3h9OxH7N-87" edge="1">
          <mxGeometry width="160" relative="1" as="geometry">
            <mxPoint x="-554" y="2680" as="sourcePoint" />
            <mxPoint x="-694" y="2080" as="targetPoint" />
          </mxGeometry>
        </mxCell>
        <mxCell id="qMjN_QjHDl9g3h9OxH7N-164" value="" style="edgeStyle=none;html=1;endArrow=block;endFill=0;endSize=12;verticalAlign=bottom;rounded=0;exitX=1;exitY=0.3333333333333333;exitDx=0;exitDy=0;exitPerimeter=0;" parent="1" source="qMjN_QjHDl9g3h9OxH7N-2" target="qMjN_QjHDl9g3h9OxH7N-88" edge="1">
          <mxGeometry width="160" relative="1" as="geometry">
            <mxPoint x="-854" y="2080" as="sourcePoint" />
            <mxPoint x="-694" y="2080" as="targetPoint" />
          </mxGeometry>
        </mxCell>
        <mxCell id="qMjN_QjHDl9g3h9OxH7N-165" value="" style="edgeStyle=none;html=1;endArrow=block;endFill=0;endSize=12;verticalAlign=bottom;rounded=0;exitX=0;exitY=1;exitDx=0;exitDy=0;exitPerimeter=0;" parent="1" source="qMjN_QjHDl9g3h9OxH7N-3" target="qMjN_QjHDl9g3h9OxH7N-89" edge="1">
          <mxGeometry width="160" relative="1" as="geometry">
            <mxPoint x="696" y="2060" as="sourcePoint" />
            <mxPoint x="-694" y="2080" as="targetPoint" />
          </mxGeometry>
        </mxCell>
        <mxCell id="qMjN_QjHDl9g3h9OxH7N-166" value="" style="edgeStyle=none;html=1;endArrow=block;endFill=0;endSize=12;verticalAlign=bottom;rounded=0;exitX=0;exitY=0.3333333333333333;exitDx=0;exitDy=0;exitPerimeter=0;entryX=1;entryY=0.5;entryDx=0;entryDy=0;" parent="1" source="qMjN_QjHDl9g3h9OxH7N-3" target="qMjN_QjHDl9g3h9OxH7N-158" edge="1">
          <mxGeometry width="160" relative="1" as="geometry">
            <mxPoint x="696" y="1866.666666666667" as="sourcePoint" />
            <mxPoint x="-694" y="2080" as="targetPoint" />
          </mxGeometry>
        </mxCell>
        <mxCell id="qMjN_QjHDl9g3h9OxH7N-167" value="Added order" style="ellipse;whiteSpace=wrap;html=1;fillColor=#f5f5f5;gradientColor=#b3b3b3;strokeColor=#666666;" parent="1" vertex="1">
          <mxGeometry x="-1160" y="1760" width="140" height="70" as="geometry" />
        </mxCell>
        <mxCell id="qMjN_QjHDl9g3h9OxH7N-168" value="Update Order" style="ellipse;whiteSpace=wrap;html=1;fillColor=#f5f5f5;gradientColor=#b3b3b3;strokeColor=#666666;" parent="1" vertex="1">
          <mxGeometry x="-750" y="1760" width="140" height="70" as="geometry" />
        </mxCell>
        <mxCell id="qMjN_QjHDl9g3h9OxH7N-169" value="Delete Order" style="ellipse;whiteSpace=wrap;html=1;fillColor=#f5f5f5;gradientColor=#b3b3b3;strokeColor=#666666;" parent="1" vertex="1">
          <mxGeometry x="-974" y="1660" width="140" height="70" as="geometry" />
        </mxCell>
        <mxCell id="qMjN_QjHDl9g3h9OxH7N-170" value="Get Order By Id" style="ellipse;whiteSpace=wrap;html=1;fillColor=#f5f5f5;gradientColor=#b3b3b3;strokeColor=#666666;" parent="1" vertex="1">
          <mxGeometry x="-750" y="1650" width="140" height="70" as="geometry" />
        </mxCell>
        <mxCell id="qMjN_QjHDl9g3h9OxH7N-171" value="Add Evlaluation&amp;nbsp;" style="ellipse;whiteSpace=wrap;html=1;fillColor=#f5f5f5;gradientColor=#b3b3b3;strokeColor=#666666;" parent="1" vertex="1">
          <mxGeometry x="-1114" y="1880" width="140" height="70" as="geometry" />
        </mxCell>
        <mxCell id="qMjN_QjHDl9g3h9OxH7N-172" value="Update Evlaluation" style="ellipse;whiteSpace=wrap;html=1;fillColor=#f5f5f5;gradientColor=#b3b3b3;strokeColor=#666666;" parent="1" vertex="1">
          <mxGeometry x="-1264" y="1900" width="140" height="70" as="geometry" />
        </mxCell>
        <mxCell id="qMjN_QjHDl9g3h9OxH7N-174" value="All" style="shape=rect;html=1;verticalAlign=top;fontStyle=1;whiteSpace=wrap;align=center;fillColor=#f5f5f5;fontColor=#333333;strokeColor=#666666;" parent="1" vertex="1">
          <mxGeometry x="-584" y="2260" width="470" height="270" as="geometry" />
        </mxCell>
        <mxCell id="qMjN_QjHDl9g3h9OxH7N-175" value="Get list Evaluation between tow nuber" style="ellipse;whiteSpace=wrap;html=1;fillColor=#f5f5f5;gradientColor=#b3b3b3;strokeColor=#666666;" parent="1" vertex="1">
          <mxGeometry x="-553" y="2290" width="140" height="70" as="geometry" />
        </mxCell>
        <mxCell id="qMjN_QjHDl9g3h9OxH7N-176" value="Get Food Truck By id" style="ellipse;whiteSpace=wrap;html=1;fillColor=#f5f5f5;gradientColor=#b3b3b3;strokeColor=#666666;" parent="1" vertex="1">
          <mxGeometry x="-240" y="2268" width="140" height="70" as="geometry" />
        </mxCell>
        <mxCell id="qMjN_QjHDl9g3h9OxH7N-177" value="&lt;br&gt;Highest rating and demand" style="ellipse;whiteSpace=wrap;html=1;fillColor=#f5f5f5;gradientColor=#b3b3b3;strokeColor=#666666;" parent="1" vertex="1">
          <mxGeometry x="-230" y="2357.5" width="140" height="70" as="geometry" />
        </mxCell>
        <mxCell id="qMjN_QjHDl9g3h9OxH7N-178" value="Check&amp;nbsp; of the food truck&amp;nbsp;available" style="ellipse;whiteSpace=wrap;html=1;fillColor=#f5f5f5;gradientColor=#b3b3b3;strokeColor=#666666;" parent="1" vertex="1">
          <mxGeometry x="-584" y="2450" width="140" height="70" as="geometry" />
        </mxCell>
        <mxCell id="qMjN_QjHDl9g3h9OxH7N-179" value="Added Evaluation" style="ellipse;whiteSpace=wrap;html=1;fillColor=#f5f5f5;gradientColor=#b3b3b3;strokeColor=#666666;" parent="1" vertex="1">
          <mxGeometry x="-380" y="2450" width="140" height="70" as="geometry" />
        </mxCell>
        <mxCell id="qMjN_QjHDl9g3h9OxH7N-180" value="Get Evaluation&amp;nbsp;" style="ellipse;whiteSpace=wrap;html=1;fillColor=#f5f5f5;gradientColor=#b3b3b3;strokeColor=#666666;" parent="1" vertex="1">
          <mxGeometry x="-419" y="2360" width="140" height="70" as="geometry" />
        </mxCell>
        <mxCell id="qMjN_QjHDl9g3h9OxH7N-181" value="" style="edgeStyle=none;html=1;endArrow=block;endFill=0;endSize=12;verticalAlign=bottom;rounded=0;exitX=0.5;exitY=0.5;exitDx=0;exitDy=0;exitPerimeter=0;" parent="1" source="qMjN_QjHDl9g3h9OxH7N-4" target="qMjN_QjHDl9g3h9OxH7N-175" edge="1">
          <mxGeometry width="160" relative="1" as="geometry">
            <mxPoint x="960" y="1990" as="sourcePoint" />
            <mxPoint x="1120" y="1990" as="targetPoint" />
          </mxGeometry>
        </mxCell>
        <mxCell id="qMjN_QjHDl9g3h9OxH7N-182" value="" style="edgeStyle=none;html=1;endArrow=block;endFill=0;endSize=12;verticalAlign=bottom;rounded=0;entryX=1;entryY=0.25;entryDx=0;entryDy=0;exitX=0.5;exitY=0.5;exitDx=0;exitDy=0;exitPerimeter=0;" parent="1" source="qMjN_QjHDl9g3h9OxH7N-3" target="qMjN_QjHDl9g3h9OxH7N-174" edge="1">
          <mxGeometry width="160" relative="1" as="geometry">
            <mxPoint x="590" y="2010" as="sourcePoint" />
            <mxPoint x="386" y="1990" as="targetPoint" />
          </mxGeometry>
        </mxCell>
        <mxCell id="qMjN_QjHDl9g3h9OxH7N-183" value="" style="edgeStyle=none;html=1;endArrow=block;endFill=0;endSize=12;verticalAlign=bottom;rounded=0;exitX=0.5;exitY=0;exitDx=0;exitDy=0;exitPerimeter=0;entryX=0.5;entryY=1;entryDx=0;entryDy=0;" parent="1" source="qMjN_QjHDl9g3h9OxH7N-2" target="qMjN_QjHDl9g3h9OxH7N-179" edge="1">
          <mxGeometry width="160" relative="1" as="geometry">
            <mxPoint x="6" y="2020" as="sourcePoint" />
            <mxPoint x="166" y="2020" as="targetPoint" />
          </mxGeometry>
        </mxCell>
        <mxCell id="XMTzQYc2xNe2NO0a9Dtt-2" value="" style="endArrow=classic;html=1;rounded=0;exitX=1;exitY=1;exitDx=0;exitDy=0;exitPerimeter=0;" edge="1" parent="1" source="qMjN_QjHDl9g3h9OxH7N-4" target="qMjN_QjHDl9g3h9OxH7N-178">
          <mxGeometry width="50" height="50" relative="1" as="geometry">
            <mxPoint x="-1240" y="1940" as="sourcePoint" />
            <mxPoint x="-1190" y="1890" as="targetPoint" />
          </mxGeometry>
        </mxCell>
        <mxCell id="XMTzQYc2xNe2NO0a9Dtt-3" value="" style="endArrow=classic;html=1;rounded=0;exitX=1;exitY=1;exitDx=0;exitDy=0;exitPerimeter=0;entryX=0;entryY=0;entryDx=0;entryDy=0;" edge="1" parent="1" source="qMjN_QjHDl9g3h9OxH7N-4" target="qMjN_QjHDl9g3h9OxH7N-87">
          <mxGeometry width="50" height="50" relative="1" as="geometry">
            <mxPoint x="-1240" y="1940" as="sourcePoint" />
            <mxPoint x="-1190" y="1890" as="targetPoint" />
          </mxGeometry>
        </mxCell>
        <mxCell id="XMTzQYc2xNe2NO0a9Dtt-4" value="" style="endArrow=classic;html=1;rounded=0;exitX=0.75;exitY=0.1;exitDx=0;exitDy=0;exitPerimeter=0;entryX=0;entryY=0.5;entryDx=0;entryDy=0;" edge="1" parent="1" source="qMjN_QjHDl9g3h9OxH7N-4" target="qMjN_QjHDl9g3h9OxH7N-105">
          <mxGeometry width="50" height="50" relative="1" as="geometry">
            <mxPoint x="-1240" y="1940" as="sourcePoint" />
            <mxPoint x="-1190" y="1890" as="targetPoint" />
          </mxGeometry>
        </mxCell>
        <mxCell id="XMTzQYc2xNe2NO0a9Dtt-5" value="" style="endArrow=classic;html=1;rounded=0;exitX=1;exitY=0.3333333333333333;exitDx=0;exitDy=0;exitPerimeter=0;" edge="1" parent="1" source="qMjN_QjHDl9g3h9OxH7N-4" target="qMjN_QjHDl9g3h9OxH7N-106">
          <mxGeometry width="50" height="50" relative="1" as="geometry">
            <mxPoint x="-1240" y="1940" as="sourcePoint" />
            <mxPoint x="-1190" y="1890" as="targetPoint" />
          </mxGeometry>
        </mxCell>
        <mxCell id="XMTzQYc2xNe2NO0a9Dtt-6" value="" style="endArrow=classic;html=1;rounded=0;exitX=0.75;exitY=0.1;exitDx=0;exitDy=0;exitPerimeter=0;" edge="1" parent="1" source="qMjN_QjHDl9g3h9OxH7N-4" target="qMjN_QjHDl9g3h9OxH7N-171">
          <mxGeometry width="50" height="50" relative="1" as="geometry">
            <mxPoint x="-1240" y="1940" as="sourcePoint" />
            <mxPoint x="-1190" y="1890" as="targetPoint" />
          </mxGeometry>
        </mxCell>
        <mxCell id="XMTzQYc2xNe2NO0a9Dtt-7" value="" style="endArrow=classic;html=1;rounded=0;exitX=0.75;exitY=0.1;exitDx=0;exitDy=0;exitPerimeter=0;" edge="1" parent="1" source="qMjN_QjHDl9g3h9OxH7N-4" target="qMjN_QjHDl9g3h9OxH7N-111">
          <mxGeometry width="50" height="50" relative="1" as="geometry">
            <mxPoint x="-1240" y="1940" as="sourcePoint" />
            <mxPoint x="-1190" y="1890" as="targetPoint" />
          </mxGeometry>
        </mxCell>
        <mxCell id="XMTzQYc2xNe2NO0a9Dtt-8" value="" style="endArrow=classic;html=1;rounded=0;exitX=1;exitY=0.3333333333333333;exitDx=0;exitDy=0;exitPerimeter=0;" edge="1" parent="1" source="qMjN_QjHDl9g3h9OxH7N-4" target="qMjN_QjHDl9g3h9OxH7N-170">
          <mxGeometry width="50" height="50" relative="1" as="geometry">
            <mxPoint x="-1240" y="1940" as="sourcePoint" />
            <mxPoint x="-1190" y="1890" as="targetPoint" />
          </mxGeometry>
        </mxCell>
        <mxCell id="XMTzQYc2xNe2NO0a9Dtt-9" value="" style="endArrow=classic;html=1;rounded=0;exitX=0.75;exitY=0.1;exitDx=0;exitDy=0;exitPerimeter=0;" edge="1" parent="1" source="qMjN_QjHDl9g3h9OxH7N-4" target="qMjN_QjHDl9g3h9OxH7N-108">
          <mxGeometry width="50" height="50" relative="1" as="geometry">
            <mxPoint x="-1240" y="1940" as="sourcePoint" />
            <mxPoint x="-1190" y="1890" as="targetPoint" />
          </mxGeometry>
        </mxCell>
        <mxCell id="XMTzQYc2xNe2NO0a9Dtt-10" value="" style="endArrow=classic;html=1;rounded=0;exitX=0.75;exitY=0.1;exitDx=0;exitDy=0;exitPerimeter=0;entryX=0;entryY=1;entryDx=0;entryDy=0;" edge="1" parent="1" source="qMjN_QjHDl9g3h9OxH7N-4" target="qMjN_QjHDl9g3h9OxH7N-107">
          <mxGeometry width="50" height="50" relative="1" as="geometry">
            <mxPoint x="-1240" y="1940" as="sourcePoint" />
            <mxPoint x="-1190" y="1890" as="targetPoint" />
          </mxGeometry>
        </mxCell>
        <mxCell id="XMTzQYc2xNe2NO0a9Dtt-11" value="" style="endArrow=classic;html=1;rounded=0;exitX=1;exitY=0.3333333333333333;exitDx=0;exitDy=0;exitPerimeter=0;" edge="1" parent="1" source="qMjN_QjHDl9g3h9OxH7N-4" target="qMjN_QjHDl9g3h9OxH7N-109">
          <mxGeometry width="50" height="50" relative="1" as="geometry">
            <mxPoint x="-1240" y="1940" as="sourcePoint" />
            <mxPoint x="-1190" y="1890" as="targetPoint" />
          </mxGeometry>
        </mxCell>
        <mxCell id="XMTzQYc2xNe2NO0a9Dtt-12" value="" style="endArrow=classic;html=1;rounded=0;exitX=0.75;exitY=0.1;exitDx=0;exitDy=0;exitPerimeter=0;" edge="1" parent="1" source="qMjN_QjHDl9g3h9OxH7N-4" target="qMjN_QjHDl9g3h9OxH7N-169">
          <mxGeometry width="50" height="50" relative="1" as="geometry">
            <mxPoint x="-1240" y="1940" as="sourcePoint" />
            <mxPoint x="-1190" y="1890" as="targetPoint" />
          </mxGeometry>
        </mxCell>
        <mxCell id="XMTzQYc2xNe2NO0a9Dtt-13" value="" style="endArrow=classic;html=1;rounded=0;exitX=0.75;exitY=0.1;exitDx=0;exitDy=0;exitPerimeter=0;entryX=0;entryY=0.5;entryDx=0;entryDy=0;" edge="1" parent="1" source="qMjN_QjHDl9g3h9OxH7N-4" target="qMjN_QjHDl9g3h9OxH7N-168">
          <mxGeometry width="50" height="50" relative="1" as="geometry">
            <mxPoint x="-1240" y="1940" as="sourcePoint" />
            <mxPoint x="-1190" y="1890" as="targetPoint" />
          </mxGeometry>
        </mxCell>
        <mxCell id="XMTzQYc2xNe2NO0a9Dtt-14" value="" style="endArrow=classic;html=1;rounded=0;exitX=0.5;exitY=0;exitDx=0;exitDy=0;exitPerimeter=0;entryX=0;entryY=0.5;entryDx=0;entryDy=0;" edge="1" parent="1" source="qMjN_QjHDl9g3h9OxH7N-4" target="qMjN_QjHDl9g3h9OxH7N-110">
          <mxGeometry width="50" height="50" relative="1" as="geometry">
            <mxPoint x="-1240" y="1940" as="sourcePoint" />
            <mxPoint x="-1190" y="1890" as="targetPoint" />
          </mxGeometry>
        </mxCell>
        <mxCell id="XMTzQYc2xNe2NO0a9Dtt-15" value="" style="endArrow=classic;html=1;rounded=0;exitX=0.75;exitY=0.1;exitDx=0;exitDy=0;exitPerimeter=0;" edge="1" parent="1" source="qMjN_QjHDl9g3h9OxH7N-4" target="qMjN_QjHDl9g3h9OxH7N-101">
          <mxGeometry width="50" height="50" relative="1" as="geometry">
            <mxPoint x="-1240" y="1940" as="sourcePoint" />
            <mxPoint x="-1190" y="1890" as="targetPoint" />
          </mxGeometry>
        </mxCell>
        <mxCell id="XMTzQYc2xNe2NO0a9Dtt-16" value="" style="endArrow=classic;html=1;rounded=0;exitX=0.75;exitY=0.1;exitDx=0;exitDy=0;exitPerimeter=0;" edge="1" parent="1" source="qMjN_QjHDl9g3h9OxH7N-4" target="qMjN_QjHDl9g3h9OxH7N-102">
          <mxGeometry width="50" height="50" relative="1" as="geometry">
            <mxPoint x="-1240" y="1940" as="sourcePoint" />
            <mxPoint x="-1190" y="1890" as="targetPoint" />
          </mxGeometry>
        </mxCell>
        <mxCell id="XMTzQYc2xNe2NO0a9Dtt-17" value="" style="endArrow=classic;html=1;rounded=0;exitX=0.5;exitY=0;exitDx=0;exitDy=0;exitPerimeter=0;entryX=0;entryY=1;entryDx=0;entryDy=0;" edge="1" parent="1" source="qMjN_QjHDl9g3h9OxH7N-4" target="qMjN_QjHDl9g3h9OxH7N-104">
          <mxGeometry width="50" height="50" relative="1" as="geometry">
            <mxPoint x="-1240" y="1940" as="sourcePoint" />
            <mxPoint x="-1190" y="1890" as="targetPoint" />
          </mxGeometry>
        </mxCell>
        <mxCell id="XMTzQYc2xNe2NO0a9Dtt-18" value="" style="endArrow=classic;html=1;rounded=0;exitX=0.75;exitY=0.1;exitDx=0;exitDy=0;exitPerimeter=0;" edge="1" parent="1" source="qMjN_QjHDl9g3h9OxH7N-4" target="qMjN_QjHDl9g3h9OxH7N-103">
          <mxGeometry width="50" height="50" relative="1" as="geometry">
            <mxPoint x="-1240" y="1940" as="sourcePoint" />
            <mxPoint x="-1190" y="1890" as="targetPoint" />
          </mxGeometry>
        </mxCell>
        <mxCell id="XMTzQYc2xNe2NO0a9Dtt-19" value="" style="endArrow=classic;html=1;rounded=0;entryX=0;entryY=0;entryDx=0;entryDy=0;" edge="1" parent="1" target="qMjN_QjHDl9g3h9OxH7N-172">
          <mxGeometry width="50" height="50" relative="1" as="geometry">
            <mxPoint x="-1380" y="1800" as="sourcePoint" />
            <mxPoint x="-1190" y="1890" as="targetPoint" />
          </mxGeometry>
        </mxCell>
        <mxCell id="XMTzQYc2xNe2NO0a9Dtt-20" value="" style="endArrow=classic;html=1;rounded=0;exitX=1;exitY=0.3333333333333333;exitDx=0;exitDy=0;exitPerimeter=0;entryX=0;entryY=1;entryDx=0;entryDy=0;" edge="1" parent="1" source="qMjN_QjHDl9g3h9OxH7N-4" target="qMjN_QjHDl9g3h9OxH7N-112">
          <mxGeometry width="50" height="50" relative="1" as="geometry">
            <mxPoint x="-1240" y="1940" as="sourcePoint" />
            <mxPoint x="-1190" y="1890" as="targetPoint" />
          </mxGeometry>
        </mxCell>
        <mxCell id="XMTzQYc2xNe2NO0a9Dtt-21" value="" style="endArrow=classic;html=1;rounded=0;exitX=1;exitY=0.3333333333333333;exitDx=0;exitDy=0;exitPerimeter=0;entryX=0;entryY=0.5;entryDx=0;entryDy=0;" edge="1" parent="1" source="qMjN_QjHDl9g3h9OxH7N-4" target="qMjN_QjHDl9g3h9OxH7N-167">
          <mxGeometry width="50" height="50" relative="1" as="geometry">
            <mxPoint x="-1240" y="1940" as="sourcePoint" />
            <mxPoint x="-1190" y="1890" as="targetPoint" />
          </mxGeometry>
        </mxCell>
        <mxCell id="XMTzQYc2xNe2NO0a9Dtt-22" value="" style="endArrow=classic;html=1;rounded=0;exitX=0;exitY=0.3333333333333333;exitDx=0;exitDy=0;exitPerimeter=0;" edge="1" parent="1" source="qMjN_QjHDl9g3h9OxH7N-2" target="qMjN_QjHDl9g3h9OxH7N-86">
          <mxGeometry width="50" height="50" relative="1" as="geometry">
            <mxPoint x="-990" y="2210" as="sourcePoint" />
            <mxPoint x="-940" y="2160" as="targetPoint" />
          </mxGeometry>
        </mxCell>
        <mxCell id="XMTzQYc2xNe2NO0a9Dtt-23" value="" style="endArrow=classic;html=1;rounded=0;exitX=0.5;exitY=0.5;exitDx=0;exitDy=0;exitPerimeter=0;" edge="1" parent="1" source="qMjN_QjHDl9g3h9OxH7N-4" target="qMjN_QjHDl9g3h9OxH7N-176">
          <mxGeometry width="50" height="50" relative="1" as="geometry">
            <mxPoint x="-990" y="2210" as="sourcePoint" />
            <mxPoint x="-940" y="2160" as="targetPoint" />
          </mxGeometry>
        </mxCell>
        <mxCell id="XMTzQYc2xNe2NO0a9Dtt-24" value="" style="endArrow=classic;html=1;rounded=0;exitX=0.5;exitY=0.5;exitDx=0;exitDy=0;exitPerimeter=0;" edge="1" parent="1" source="qMjN_QjHDl9g3h9OxH7N-4" target="qMjN_QjHDl9g3h9OxH7N-177">
          <mxGeometry width="50" height="50" relative="1" as="geometry">
            <mxPoint x="-990" y="2210" as="sourcePoint" />
            <mxPoint x="-940" y="2160" as="targetPoint" />
          </mxGeometry>
        </mxCell>
        <mxCell id="XMTzQYc2xNe2NO0a9Dtt-25" value="" style="endArrow=classic;html=1;rounded=0;exitX=0.5;exitY=0.5;exitDx=0;exitDy=0;exitPerimeter=0;" edge="1" parent="1" source="qMjN_QjHDl9g3h9OxH7N-4" target="qMjN_QjHDl9g3h9OxH7N-179">
          <mxGeometry width="50" height="50" relative="1" as="geometry">
            <mxPoint x="-990" y="2210" as="sourcePoint" />
            <mxPoint x="-940" y="2160" as="targetPoint" />
          </mxGeometry>
        </mxCell>
        <mxCell id="XMTzQYc2xNe2NO0a9Dtt-26" value="" style="endArrow=classic;html=1;rounded=0;exitX=0.5;exitY=0.5;exitDx=0;exitDy=0;exitPerimeter=0;entryX=0;entryY=0.5;entryDx=0;entryDy=0;" edge="1" parent="1" source="qMjN_QjHDl9g3h9OxH7N-4" target="qMjN_QjHDl9g3h9OxH7N-180">
          <mxGeometry width="50" height="50" relative="1" as="geometry">
            <mxPoint x="-990" y="2210" as="sourcePoint" />
            <mxPoint x="-940" y="2160" as="targetPoint" />
          </mxGeometry>
        </mxCell>
        <mxCell id="XMTzQYc2xNe2NO0a9Dtt-27" value="" style="endArrow=classic;html=1;rounded=0;exitX=1;exitY=1;exitDx=0;exitDy=0;exitPerimeter=0;entryX=0.5;entryY=1;entryDx=0;entryDy=0;" edge="1" parent="1" source="qMjN_QjHDl9g3h9OxH7N-2" target="qMjN_QjHDl9g3h9OxH7N-84">
          <mxGeometry width="50" height="50" relative="1" as="geometry">
            <mxPoint x="-100" y="2770" as="sourcePoint" />
            <mxPoint x="20" y="2690" as="targetPoint" />
          </mxGeometry>
        </mxCell>
        <mxCell id="XMTzQYc2xNe2NO0a9Dtt-28" value="" style="endArrow=classic;html=1;rounded=0;" edge="1" parent="1">
          <mxGeometry width="50" height="50" relative="1" as="geometry">
            <mxPoint x="-80" y="2780" as="sourcePoint" />
            <mxPoint x="-30" y="2730" as="targetPoint" />
          </mxGeometry>
        </mxCell>
        <mxCell id="XMTzQYc2xNe2NO0a9Dtt-29" value="" style="endArrow=classic;html=1;rounded=0;exitX=0.5;exitY=0;exitDx=0;exitDy=0;exitPerimeter=0;entryX=1;entryY=1;entryDx=0;entryDy=0;" edge="1" parent="1" source="qMjN_QjHDl9g3h9OxH7N-3" target="qMjN_QjHDl9g3h9OxH7N-124">
          <mxGeometry width="50" height="50" relative="1" as="geometry">
            <mxPoint x="406" y="2007" as="sourcePoint" />
            <mxPoint x="456" y="1957" as="targetPoint" />
          </mxGeometry>
        </mxCell>
        <mxCell id="XMTzQYc2xNe2NO0a9Dtt-30" value="" style="endArrow=classic;html=1;rounded=0;" edge="1" parent="1">
          <mxGeometry width="50" height="50" relative="1" as="geometry">
            <mxPoint x="-40" y="2810" as="sourcePoint" />
            <mxPoint x="10" y="2760" as="targetPoint" />
          </mxGeometry>
        </mxCell>
        <mxCell id="XMTzQYc2xNe2NO0a9Dtt-31" value="" style="endArrow=classic;html=1;rounded=0;exitX=1;exitY=0.3333333333333333;exitDx=0;exitDy=0;exitPerimeter=0;entryX=0.5;entryY=1;entryDx=0;entryDy=0;" edge="1" parent="1" source="qMjN_QjHDl9g3h9OxH7N-2" target="qMjN_QjHDl9g3h9OxH7N-177">
          <mxGeometry width="50" height="50" relative="1" as="geometry">
            <mxPoint x="-1010" y="2350" as="sourcePoint" />
            <mxPoint x="-960" y="2300" as="targetPoint" />
          </mxGeometry>
        </mxCell>
        <mxCell id="XMTzQYc2xNe2NO0a9Dtt-32" value="" style="endArrow=classic;html=1;rounded=0;exitX=1;exitY=0.3333333333333333;exitDx=0;exitDy=0;exitPerimeter=0;entryX=0;entryY=1;entryDx=0;entryDy=0;" edge="1" parent="1" source="qMjN_QjHDl9g3h9OxH7N-2" target="qMjN_QjHDl9g3h9OxH7N-176">
          <mxGeometry width="50" height="50" relative="1" as="geometry">
            <mxPoint x="-1010" y="2350" as="sourcePoint" />
            <mxPoint x="-960" y="2300" as="targetPoint" />
          </mxGeometry>
        </mxCell>
        <mxCell id="XMTzQYc2xNe2NO0a9Dtt-33" value="" style="endArrow=classic;html=1;rounded=0;exitX=0.5;exitY=0;exitDx=0;exitDy=0;exitPerimeter=0;" edge="1" parent="1" source="qMjN_QjHDl9g3h9OxH7N-2" target="qMjN_QjHDl9g3h9OxH7N-180">
          <mxGeometry width="50" height="50" relative="1" as="geometry">
            <mxPoint x="-1010" y="2350" as="sourcePoint" />
            <mxPoint x="-960" y="2300" as="targetPoint" />
          </mxGeometry>
        </mxCell>
        <mxCell id="XMTzQYc2xNe2NO0a9Dtt-34" value="" style="endArrow=classic;html=1;rounded=0;exitX=0.5;exitY=0;exitDx=0;exitDy=0;exitPerimeter=0;entryX=0.5;entryY=1;entryDx=0;entryDy=0;" edge="1" parent="1" source="qMjN_QjHDl9g3h9OxH7N-2" target="qMjN_QjHDl9g3h9OxH7N-175">
          <mxGeometry width="50" height="50" relative="1" as="geometry">
            <mxPoint x="-1010" y="2350" as="sourcePoint" />
            <mxPoint x="-960" y="2300" as="targetPoint" />
          </mxGeometry>
        </mxCell>
        <mxCell id="XMTzQYc2xNe2NO0a9Dtt-35" value="" style="endArrow=classic;html=1;rounded=0;exitX=0;exitY=0.3333333333333333;exitDx=0;exitDy=0;exitPerimeter=0;" edge="1" parent="1" source="qMjN_QjHDl9g3h9OxH7N-2" target="qMjN_QjHDl9g3h9OxH7N-178">
          <mxGeometry width="50" height="50" relative="1" as="geometry">
            <mxPoint x="-1010" y="2350" as="sourcePoint" />
            <mxPoint x="-960" y="2300" as="targetPoint" />
          </mxGeometry>
        </mxCell>
        <mxCell id="XMTzQYc2xNe2NO0a9Dtt-36" value="" style="endArrow=classic;html=1;rounded=0;" edge="1" parent="1">
          <mxGeometry width="50" height="50" relative="1" as="geometry">
            <mxPoint x="-90" y="2780" as="sourcePoint" />
            <mxPoint x="-40" y="2730" as="targetPoint" />
          </mxGeometry>
        </mxCell>
        <mxCell id="XMTzQYc2xNe2NO0a9Dtt-37" value="" style="endArrow=classic;html=1;rounded=0;" edge="1" parent="1">
          <mxGeometry width="50" height="50" relative="1" as="geometry">
            <mxPoint x="-70" y="2790" as="sourcePoint" />
            <mxPoint x="-20" y="2740" as="targetPoint" />
          </mxGeometry>
        </mxCell>
        <mxCell id="XMTzQYc2xNe2NO0a9Dtt-38" value="" style="endArrow=classic;html=1;rounded=0;entryX=1;entryY=0.5;entryDx=0;entryDy=0;" edge="1" parent="1" target="qMjN_QjHDl9g3h9OxH7N-123">
          <mxGeometry width="50" height="50" relative="1" as="geometry">
            <mxPoint x="610" y="1890" as="sourcePoint" />
            <mxPoint x="450" y="2580" as="targetPoint" />
          </mxGeometry>
        </mxCell>
        <mxCell id="XMTzQYc2xNe2NO0a9Dtt-39" value="" style="endArrow=classic;html=1;rounded=0;exitX=0;exitY=1;exitDx=0;exitDy=0;exitPerimeter=0;entryX=1;entryY=0;entryDx=0;entryDy=0;" edge="1" parent="1" source="qMjN_QjHDl9g3h9OxH7N-3" target="qMjN_QjHDl9g3h9OxH7N-88">
          <mxGeometry width="50" height="50" relative="1" as="geometry">
            <mxPoint x="376" y="2140" as="sourcePoint" />
            <mxPoint x="426" y="2090" as="targetPoint" />
          </mxGeometry>
        </mxCell>
        <mxCell id="XMTzQYc2xNe2NO0a9Dtt-40" value="" style="endArrow=classic;html=1;rounded=0;exitX=0;exitY=1;exitDx=0;exitDy=0;exitPerimeter=0;entryX=1;entryY=0;entryDx=0;entryDy=0;" edge="1" parent="1" source="qMjN_QjHDl9g3h9OxH7N-3" target="qMjN_QjHDl9g3h9OxH7N-84">
          <mxGeometry width="50" height="50" relative="1" as="geometry">
            <mxPoint x="349" y="2640" as="sourcePoint" />
            <mxPoint x="399" y="2590" as="targetPoint" />
          </mxGeometry>
        </mxCell>
        <mxCell id="XMTzQYc2xNe2NO0a9Dtt-41" value="" style="endArrow=classic;html=1;rounded=0;exitX=0.25;exitY=0.1;exitDx=0;exitDy=0;exitPerimeter=0;entryX=1;entryY=0.5;entryDx=0;entryDy=0;" edge="1" parent="1" source="qMjN_QjHDl9g3h9OxH7N-3" target="qMjN_QjHDl9g3h9OxH7N-116">
          <mxGeometry width="50" height="50" relative="1" as="geometry">
            <mxPoint x="610" y="2050" as="sourcePoint" />
            <mxPoint x="760" y="1720" as="targetPoint" />
          </mxGeometry>
        </mxCell>
        <mxCell id="XMTzQYc2xNe2NO0a9Dtt-42" value="" style="endArrow=classic;html=1;rounded=0;" edge="1" parent="1">
          <mxGeometry width="50" height="50" relative="1" as="geometry">
            <mxPoint x="-40" y="2810" as="sourcePoint" />
            <mxPoint x="10" y="2760" as="targetPoint" />
          </mxGeometry>
        </mxCell>
        <mxCell id="XMTzQYc2xNe2NO0a9Dtt-43" value="" style="endArrow=classic;html=1;rounded=0;exitX=1;exitY=1;exitDx=0;exitDy=0;exitPerimeter=0;" edge="1" parent="1" source="qMjN_QjHDl9g3h9OxH7N-2" target="qMjN_QjHDl9g3h9OxH7N-89">
          <mxGeometry width="50" height="50" relative="1" as="geometry">
            <mxPoint x="-20" y="2830" as="sourcePoint" />
            <mxPoint x="30" y="2780" as="targetPoint" />
          </mxGeometry>
        </mxCell>
        <mxCell id="XMTzQYc2xNe2NO0a9Dtt-44" value="" style="endArrow=classic;html=1;rounded=0;" edge="1" parent="1">
          <mxGeometry width="50" height="50" relative="1" as="geometry">
            <mxPoint x="-70" y="2790" as="sourcePoint" />
            <mxPoint x="-20" y="2740" as="targetPoint" />
          </mxGeometry>
        </mxCell>
        <mxCell id="XMTzQYc2xNe2NO0a9Dtt-45" value="" style="endArrow=classic;html=1;rounded=0;" edge="1" parent="1">
          <mxGeometry width="50" height="50" relative="1" as="geometry">
            <mxPoint x="500" y="2700" as="sourcePoint" />
            <mxPoint x="550" y="2650" as="targetPoint" />
          </mxGeometry>
        </mxCell>
        <mxCell id="XMTzQYc2xNe2NO0a9Dtt-46" value="" style="endArrow=classic;html=1;rounded=0;" edge="1" parent="1">
          <mxGeometry width="50" height="50" relative="1" as="geometry">
            <mxPoint x="480" y="2680" as="sourcePoint" />
            <mxPoint x="530" y="2630" as="targetPoint" />
          </mxGeometry>
        </mxCell>
        <mxCell id="XMTzQYc2xNe2NO0a9Dtt-47" value="" style="endArrow=classic;html=1;rounded=0;" edge="1" parent="1" target="qMjN_QjHDl9g3h9OxH7N-160">
          <mxGeometry width="50" height="50" relative="1" as="geometry">
            <mxPoint x="620" y="1890" as="sourcePoint" />
            <mxPoint x="490" y="1980" as="targetPoint" />
          </mxGeometry>
        </mxCell>
        <mxCell id="XMTzQYc2xNe2NO0a9Dtt-48" value="" style="endArrow=classic;html=1;rounded=0;exitX=0;exitY=0.3333333333333333;exitDx=0;exitDy=0;exitPerimeter=0;" edge="1" parent="1" source="qMjN_QjHDl9g3h9OxH7N-3" target="qMjN_QjHDl9g3h9OxH7N-154">
          <mxGeometry width="50" height="50" relative="1" as="geometry">
            <mxPoint x="450" y="2040" as="sourcePoint" />
            <mxPoint x="500" y="1990" as="targetPoint" />
          </mxGeometry>
        </mxCell>
        <mxCell id="XMTzQYc2xNe2NO0a9Dtt-49" value="" style="endArrow=classic;html=1;rounded=0;exitX=0;exitY=0.3333333333333333;exitDx=0;exitDy=0;exitPerimeter=0;entryX=0.968;entryY=0.655;entryDx=0;entryDy=0;entryPerimeter=0;" edge="1" parent="1" source="qMjN_QjHDl9g3h9OxH7N-3" target="qMjN_QjHDl9g3h9OxH7N-156">
          <mxGeometry width="50" height="50" relative="1" as="geometry">
            <mxPoint x="460" y="2050" as="sourcePoint" />
            <mxPoint x="510" y="2000" as="targetPoint" />
          </mxGeometry>
        </mxCell>
        <mxCell id="XMTzQYc2xNe2NO0a9Dtt-50" value="" style="endArrow=classic;html=1;rounded=0;exitX=0;exitY=0.3333333333333333;exitDx=0;exitDy=0;exitPerimeter=0;entryX=1;entryY=0;entryDx=0;entryDy=0;" edge="1" parent="1" source="qMjN_QjHDl9g3h9OxH7N-3" target="qMjN_QjHDl9g3h9OxH7N-145">
          <mxGeometry width="50" height="50" relative="1" as="geometry">
            <mxPoint x="470" y="2060" as="sourcePoint" />
            <mxPoint x="520" y="2010" as="targetPoint" />
          </mxGeometry>
        </mxCell>
        <mxCell id="XMTzQYc2xNe2NO0a9Dtt-51" value="" style="endArrow=classic;html=1;rounded=0;exitX=0;exitY=0.3333333333333333;exitDx=0;exitDy=0;exitPerimeter=0;entryX=1;entryY=1;entryDx=0;entryDy=0;" edge="1" parent="1" source="qMjN_QjHDl9g3h9OxH7N-3" target="qMjN_QjHDl9g3h9OxH7N-141">
          <mxGeometry width="50" height="50" relative="1" as="geometry">
            <mxPoint x="480" y="2070" as="sourcePoint" />
            <mxPoint x="530" y="2020" as="targetPoint" />
          </mxGeometry>
        </mxCell>
        <mxCell id="XMTzQYc2xNe2NO0a9Dtt-52" value="" style="endArrow=classic;html=1;rounded=0;exitX=0;exitY=0.3333333333333333;exitDx=0;exitDy=0;exitPerimeter=0;entryX=1;entryY=0.5;entryDx=0;entryDy=0;" edge="1" parent="1" source="qMjN_QjHDl9g3h9OxH7N-3" target="qMjN_QjHDl9g3h9OxH7N-147">
          <mxGeometry width="50" height="50" relative="1" as="geometry">
            <mxPoint x="490" y="2080" as="sourcePoint" />
            <mxPoint x="540" y="2030" as="targetPoint" />
          </mxGeometry>
        </mxCell>
        <mxCell id="XMTzQYc2xNe2NO0a9Dtt-53" value="" style="endArrow=classic;html=1;rounded=0;exitX=0.25;exitY=0.1;exitDx=0;exitDy=0;exitPerimeter=0;entryX=1;entryY=0.5;entryDx=0;entryDy=0;" edge="1" parent="1" source="qMjN_QjHDl9g3h9OxH7N-3" target="qMjN_QjHDl9g3h9OxH7N-142">
          <mxGeometry width="50" height="50" relative="1" as="geometry">
            <mxPoint x="500" y="2090" as="sourcePoint" />
            <mxPoint x="550" y="2040" as="targetPoint" />
          </mxGeometry>
        </mxCell>
        <mxCell id="XMTzQYc2xNe2NO0a9Dtt-54" value="" style="endArrow=classic;html=1;rounded=0;exitX=0;exitY=0.3333333333333333;exitDx=0;exitDy=0;exitPerimeter=0;entryX=1;entryY=0.5;entryDx=0;entryDy=0;" edge="1" parent="1" source="qMjN_QjHDl9g3h9OxH7N-3" target="qMjN_QjHDl9g3h9OxH7N-143">
          <mxGeometry width="50" height="50" relative="1" as="geometry">
            <mxPoint x="610" y="1880" as="sourcePoint" />
            <mxPoint x="560" y="2050" as="targetPoint" />
          </mxGeometry>
        </mxCell>
        <mxCell id="XMTzQYc2xNe2NO0a9Dtt-55" value="" style="endArrow=classic;html=1;rounded=0;exitX=0.5;exitY=0;exitDx=0;exitDy=0;exitPerimeter=0;entryX=1;entryY=1;entryDx=0;entryDy=0;" edge="1" parent="1" source="qMjN_QjHDl9g3h9OxH7N-3" target="qMjN_QjHDl9g3h9OxH7N-148">
          <mxGeometry width="50" height="50" relative="1" as="geometry">
            <mxPoint x="500" y="2120" as="sourcePoint" />
            <mxPoint x="550" y="2070" as="targetPoint" />
          </mxGeometry>
        </mxCell>
        <mxCell id="XMTzQYc2xNe2NO0a9Dtt-56" value="" style="endArrow=classic;html=1;rounded=0;exitX=0.25;exitY=0.1;exitDx=0;exitDy=0;exitPerimeter=0;entryX=0.5;entryY=1;entryDx=0;entryDy=0;" edge="1" parent="1" source="qMjN_QjHDl9g3h9OxH7N-3" target="qMjN_QjHDl9g3h9OxH7N-146">
          <mxGeometry width="50" height="50" relative="1" as="geometry">
            <mxPoint x="530" y="2120" as="sourcePoint" />
            <mxPoint x="580" y="2070" as="targetPoint" />
          </mxGeometry>
        </mxCell>
        <mxCell id="XMTzQYc2xNe2NO0a9Dtt-57" value="" style="endArrow=classic;html=1;rounded=0;exitX=0.5;exitY=0;exitDx=0;exitDy=0;exitPerimeter=0;entryX=1;entryY=1;entryDx=0;entryDy=0;" edge="1" parent="1" source="qMjN_QjHDl9g3h9OxH7N-3" target="qMjN_QjHDl9g3h9OxH7N-121">
          <mxGeometry width="50" height="50" relative="1" as="geometry">
            <mxPoint x="540" y="2130" as="sourcePoint" />
            <mxPoint x="590" y="2080" as="targetPoint" />
          </mxGeometry>
        </mxCell>
        <mxCell id="XMTzQYc2xNe2NO0a9Dtt-58" value="" style="endArrow=classic;html=1;rounded=0;exitX=0.25;exitY=0.1;exitDx=0;exitDy=0;exitPerimeter=0;entryX=1;entryY=1;entryDx=0;entryDy=0;" edge="1" parent="1" source="qMjN_QjHDl9g3h9OxH7N-3" target="qMjN_QjHDl9g3h9OxH7N-144">
          <mxGeometry width="50" height="50" relative="1" as="geometry">
            <mxPoint x="550" y="2140" as="sourcePoint" />
            <mxPoint x="600" y="2090" as="targetPoint" />
          </mxGeometry>
        </mxCell>
        <mxCell id="XMTzQYc2xNe2NO0a9Dtt-59" value="" style="endArrow=classic;html=1;rounded=0;exitX=0.5;exitY=0;exitDx=0;exitDy=0;exitPerimeter=0;entryX=1;entryY=1;entryDx=0;entryDy=0;" edge="1" parent="1" source="qMjN_QjHDl9g3h9OxH7N-3" target="qMjN_QjHDl9g3h9OxH7N-115">
          <mxGeometry width="50" height="50" relative="1" as="geometry">
            <mxPoint x="710" y="1800" as="sourcePoint" />
            <mxPoint x="466" y="1967" as="targetPoint" />
          </mxGeometry>
        </mxCell>
        <mxCell id="XMTzQYc2xNe2NO0a9Dtt-60" value="" style="endArrow=classic;html=1;rounded=0;exitX=0.25;exitY=0.1;exitDx=0;exitDy=0;exitPerimeter=0;entryX=1;entryY=0.5;entryDx=0;entryDy=0;" edge="1" parent="1" source="qMjN_QjHDl9g3h9OxH7N-3" target="qMjN_QjHDl9g3h9OxH7N-113">
          <mxGeometry width="50" height="50" relative="1" as="geometry">
            <mxPoint x="426" y="2027" as="sourcePoint" />
            <mxPoint x="476" y="1977" as="targetPoint" />
          </mxGeometry>
        </mxCell>
        <mxCell id="XMTzQYc2xNe2NO0a9Dtt-61" value="" style="endArrow=classic;html=1;rounded=0;exitX=0.25;exitY=0.1;exitDx=0;exitDy=0;exitPerimeter=0;entryX=1;entryY=1;entryDx=0;entryDy=0;" edge="1" parent="1" source="qMjN_QjHDl9g3h9OxH7N-3" target="qMjN_QjHDl9g3h9OxH7N-114">
          <mxGeometry width="50" height="50" relative="1" as="geometry">
            <mxPoint x="436" y="2037" as="sourcePoint" />
            <mxPoint x="486" y="1987" as="targetPoint" />
          </mxGeometry>
        </mxCell>
        <mxCell id="XMTzQYc2xNe2NO0a9Dtt-62" value="" style="endArrow=classic;html=1;rounded=0;exitX=0.5;exitY=0;exitDx=0;exitDy=0;exitPerimeter=0;entryX=1;entryY=1;entryDx=0;entryDy=0;" edge="1" parent="1" source="qMjN_QjHDl9g3h9OxH7N-3" target="qMjN_QjHDl9g3h9OxH7N-122">
          <mxGeometry width="50" height="50" relative="1" as="geometry">
            <mxPoint x="730" y="1810" as="sourcePoint" />
            <mxPoint x="496" y="1997" as="targetPoint" />
          </mxGeometry>
        </mxCell>
      </root>
    </mxGraphModel>
  </diagram>
</mxfile>
